<svg width="1024" height="1024" viewBox="0 0 1024 1024" fill="none" xmlns="http://www.w3.org/2000/svg">
  <defs>
    <linearGradient id="docGradient" x1="0" y1="0" x2="1" y2="1">
      <stop offset="0%" stop-color="#FFFFFF"/>
      <stop offset="100%" stop-color="#E9EDF3"/>
    </linearGradient>

    <linearGradient id="panelGradient" x1="0" y1="0" x2="1" y2="1">
      <stop offset="0%" stop-color="#2B3442"/>
      <stop offset="100%" stop-color="#111827"/>
    </linearGradient>

    <linearGradient id="tileGradient" x1="0" y1="0" x2="1" y2="1">
      <stop offset="0%" stop-color="#2B3442"/>
      <stop offset="100%" stop-color="#111827"/>
    </linearGradient>

    <filter id="shadow" x="-20%" y="-20%" width="140%" height="140%">
      <feDropShadow dx="0" dy="18" stdDeviation="24" flood-color="#000000" flood-opacity="0.18"/>
    </filter>
  </defs>

  <!-- Gray background (macOS will round the corners automatically) -->
  <rect width="1024" height="1024" fill="#D1D5DB"/>

  <g filter="url(#shadow)" transform="translate(512 512) scale(0.95) translate(-566 -450)">
    <!-- Document -->
    <path d="M280 180C280 153.49 301.49 132 328 132H578L744 298V700C744 726.51 722.51 748 696 748H328C301.49 748 280 726.51 280 700V180Z" fill="url(#docGradient)"/>

    <!-- Fold -->
    <path d="M578 132V250C578 276.51 599.49 298 626 298H744" fill="#F8FAFC"/>

    <!-- Text Lines -->
    <rect x="360" y="286" width="230" height="16" rx="8" fill="#B7BEC9"/>
    <rect x="360" y="374" width="300" height="18" rx="9" fill="#218BFF"/>
    <rect x="360" y="462" width="260" height="16" rx="8" fill="#B7BEC9"/>
    <rect x="360" y="550" width="210" height="16" rx="8" fill="#B7BEC9"/>

    <!-- Annotation Panel -->
    <path d="M640 250C640 223.49 661.49 202 688 202H804C830.51 202 852 223.49 852 250V652C852 678.51 830.51 700 804 700H744L676 768V700H688C661.49 700 640 678.51 640 652V250Z" fill="url(#panelGradient)"/>

    <!-- Annotation Dots -->
    <circle cx="700" cy="314" r="26" fill="#2EA8FF"/>
    <circle cx="700" cy="406" r="26" fill="#FFC83D"/>
    <circle cx="700" cy="498" r="26" fill="#FF7A1A"/>
    <circle cx="700" cy="590" r="26" fill="#8DD62C"/>
    <circle cx="700" cy="682" r="26" fill="#8B5CF6"/>

    <!-- Annotation Lines -->
    <rect x="746" y="306" width="56" height="14" rx="7" fill="#6B7280"/>
    <rect x="746" y="398" width="56" height="14" rx="7" fill="#6B7280"/>
    <rect x="746" y="490" width="56" height="14" rx="7" fill="#6B7280"/>
    <rect x="746" y="582" width="56" height="14" rx="7" fill="#6B7280"/>
    <rect x="746" y="674" width="56" height="14" rx="7" fill="#6B7280"/>
  </g>
</svg>
